<svg xmlns="http://www.w3.org/2000/svg" viewBox="0 0 100 100">
  <!-- Cream background with gold border -->
  <circle cx="50" cy="50" r="46" fill="#FFFBF0" stroke="#D4AF37" stroke-width="4"/>

  <!-- Tau Cross - Franciscan style in Byzantine Red (rotated 180°) -->
  <g transform="rotate(180, 50, 50) translate(50, 50) scale(0.055, 0.055) translate(-795, -860)" fill="#a22031" stroke="none">
    <path d="M1125 1484 c-79 -23 -115 -27 -290 -31 -194 -5 -254 -1 -385 28 -88
19 -106 10 -144 -74 -18 -40 -48 -116 -67 -170 -37 -106 -35 -121 14 -145 24
-12 35 -10 110 24 140 64 239 55 301 -29 18 -25 21 -42 20 -135 -1 -106 -7
-146 -69 -404 -29 -124 -31 -175 -9 -206 20 -30 42 -40 138 -66 44 -13 130
-44 190 -70 91 -40 113 -46 132 -37 41 18 40 53 -5 195 -73 233 -111 423 -111
554 0 113 15 166 60 213 34 36 41 39 94 39 38 0 76 -8 117 -26 34 -14 83 -28
109 -31 44 -5 49 -3 65 21 21 32 17 57 -30 184 -37 99 -70 168 -82 175 -28 16
-77 13 -158 -9z"/>
  </g>
</svg>
